<?xml version="1.0" encoding="UTF-8" standalone="no"?>
<!-- Created with Inkscape (http://www.inkscape.org/) -->

<svg
   xmlns:dc="http://purl.org/dc/elements/1.1/"
   xmlns:cc="http://creativecommons.org/ns#"
   xmlns:rdf="http://www.w3.org/1999/02/22-rdf-syntax-ns#"
   xmlns:svg="http://www.w3.org/2000/svg"
   xmlns="http://www.w3.org/2000/svg"
   version="1.1"
   width="25"
   height="25"
   id="svg3161">
  <metadata
     id="metadata3167">
    <rdf:RDF>
      <cc:Work
         rdf:about="">
        <dc:format>image/svg+xml</dc:format>
        <dc:type
           rdf:resource="http://purl.org/dc/dcmitype/StillImage" />
        <dc:title></dc:title>
      </cc:Work>
    </rdf:RDF>
  </metadata>
  <defs
     id="defs3165" />
  <path
     d="m 7.4775161,20.765097 -0.2105187,1.432974 -0.076194,-1.710349 -0.076194,-1.710349 7.5007406,0.115916 7.500741,0.115915 -7.214029,0.161459 -7.214029,0.161461 -0.2105181,1.432973 z m 8.2820159,-4.849004 -3.813935,0.03316 3.559673,-0.184381 3.559674,-0.184381 -0.179314,-4.453564 -0.179314,-4.4535627 0.580506,0 0.580506,0 -0.14693,4.6047857 -0.146929,4.604787 -3.813937,0.03315 z M 6.8903602,15.619805 c -0.403027,0 -0.8725846,-0.234105 -1.0434616,-0.520233 l -0.3106858,-0.520233 0.7447215,0.295744 0.7447209,0.295742 0.2397504,-0.959598 0.2397509,-0.959598 0.05899,1.184088 0.058989,1.184088 -0.7327754,0 z m 1.7498252,-3.593633 -2.0340993,0.200749 0,-0.439662 0,-0.439661 -0.6356559,0.378562 -0.6356561,0.378562 0.4030558,-0.457631 0.4030558,-0.457632 2.012437,0.15037 2.0124373,0.150371 0,-0.76948 c 0,-0.423213 0.341845,-1.4477969 0.759653,-2.2768527 l 0.759655,-1.5073735 0.0031,0.8898986 c 0.0017,0.4894447 -0.225723,1.0362601 -0.505412,1.2151463 l -0.508525,0.3252474 0,1.2293189 0,1.229319 -2.0340988,0.200748 z M 20.66636,5.3577099 20.081994,5.8839709 16.268057,5.6062386 12.454121,5.3285063 16.776582,5.0742558 c 2.377354,-0.1398377 4.35659,-0.2516754 4.398304,-0.2485288 0.04172,0.00316 -0.187124,0.2425388 -0.508526,0.5319829 z"
     id="path4607"
     style="fill:#d4d5d4" />
  <path
     d="m 5.9486963,21.007848 -0.221156,1.190223 -0.010263,-2.105045 -0.010263,-2.105045 0.2314179,0.914822 c 0.1272804,0.503151 0.1318982,1.450422 0.010263,2.105045 z m 6.1240317,0.842871 -4.4495924,0.08422 0,-1.315653 0,-1.315654 0.5085249,0 0.5085249,0 0,1.052523 0,1.052523 1.0763591,0 1.0763595,0 -0.265965,-1.052523 -0.265964,-1.052523 1.684622,0 1.684621,0 -0.256566,1.015327 -0.256565,1.015328 1.702617,0.216103 1.702616,0.216106 -4.449592,0.08422 z m 7.373609,0.01256 -2.415493,-0.07167 1.166305,-0.231066 1.166303,-0.231066 -0.310654,-1.012922 -0.310653,-1.012921 1.559843,0 1.559842,0 0,1.315654 0,1.315653 -2.415493,-0.07167 z M 16.52232,18.05021 10.420022,18.04831 13.61823,17.860933 c 1.759014,-0.103062 4.505048,-0.102203 6.102297,0.0019 l 2.904091,0.18927 -6.102298,-0.0019 z M 7.9755386,15.478227 7.741115,16.4092 7.722274,14.830416 7.703434,13.251632 7.9567009,13.899443 c 0.1392965,0.356296 0.1477757,1.06675 0.01884,1.578784 z m 11.9793234,0.669051 -0.381393,0.0012 0.162653,-4.714762 0.162655,-4.7147616 -3.97659,-0.180022 -3.97659,-0.1800223 4.195329,-0.1059073 4.19533,-0.1059073 0,4.9994825 0,4.999482 -0.381394,0.0012 z m -5.212379,-1.237614 -4.322461,0 2.161231,-0.201448 c 1.188676,-0.110796 3.133784,-0.110796 4.32246,0 l 2.161231,0.201448 -4.322461,0 z M 20.747661,5.5260301 C 20.661233,5.4738844 18.874247,5.2797315 16.776582,5.0945792 l -3.813936,-0.3366409 3.656793,-0.094811 3.656793,-0.09481 0.314286,0.5262616 c 0.172857,0.2894436 0.243571,0.4835965 0.157143,0.4314509 z"
     id="path4605"
     style="fill:#b9b9b8" />
  <path
     d="m 5.3347741,17.198589 -1.7798369,0 0,-0.526261 c 0,-0.289445 -0.1716273,-0.498218 -0.3813937,-0.463941 -0.2097663,0.03428 -0.5810402,0.03428 -0.8250534,0 l -0.4436597,-0.06232 0.6219422,-0.775533 0.6219426,-0.775533 1.6015544,0.883734 c 0.880855,0.486052 1.773181,0.835042 1.9829476,0.775532 0.2097665,-0.05951 0.3813934,0.128616 0.3813934,0.418061 l 0,0.526261 -1.7798365,0 z m 4.0181371,0 -0.7528246,0 0.6557052,-0.734155 0.6557057,-0.734156 0.3896885,0.244259 0.389689,0.244257 -0.29257,0.489897 c -0.160912,0.269444 -0.6313397,0.489898 -1.0453938,0.489898 z"
     id="path4603"
     style="fill:#fe00fe" />
  <path
     d="m 16.171274,22.987464 -0.496496,0 0.201291,-0.624936 c 0.110711,-0.343715 0.47319,-0.71873 0.805511,-0.833366 l 0.604219,-0.208432 -0.309015,0.833367 c -0.169958,0.458352 -0.532438,0.833367 -0.80551,0.833367 z m 4.395808,-0.722373 -2.010664,0.06702 1.602006,-0.228015 1.602004,-0.228015 0.191271,-2.075615 0.19127,-2.075616 -0.389855,0 c -0.214419,0 0.002,-0.473635 0.480971,-1.052522 0.478954,-0.578887 1.048804,-1.052523 1.266335,-1.052523 0.21753,0 0.395509,0.369203 0.395509,0.82045 l 0,0.82045 -0.559259,-0.357696 -0.559259,-0.357697 0.581036,1.123543 0.581036,1.123542 -0.657433,-0.139078 -0.657432,-0.139076 -0.02344,1.841914 -0.02344,1.841914 -2.010664,0.06702 z M 6.4572208,21.007848 6.2360652,22.198071 6.2258026,20.093026 6.21554,17.987981 6.446958,18.902803 c 0.1272803,0.503151 0.1318981,1.450422 0.010263,2.105045 z m 9.7075802,-1.169547 -2.900142,0.254725 0.413705,-0.426529 0.413704,-0.426529 2.486438,0.171804 2.486438,0.171804 -2.900143,0.254725 z m 4.523193,-4.356504 -0.233759,0.9274 -0.05899,-5.363121 -0.05898,-5.3631188 0.381393,-0.2457117 0.381394,-0.2457113 -0.166712,4.1898999 -0.166712,4.1898999 0.675236,0.862125 0.675237,0.862125 -0.59717,-0.370595 -0.59717,-0.370592 -0.233759,0.9274 z m -2.131576,-0.914514 c -0.139843,0 -0.254261,-1.645906 -0.254261,-3.657567 l 0,-3.6575667 -2.924018,-0.1898854 -2.924018,-0.1898852 3.178281,-0.099508 3.17828,-0.099508 0,3.9469593 c 0,2.170827 -0.114419,3.94696 -0.254264,3.94696 z m -9.2805766,-2.189268 -1.9069683,-0.08422 1.6527058,-0.212254 1.6527061,-0.212251 0,-1.217873 0,-1.2178721 0.762787,-0.655137 0.762787,-0.6551369 0,0.5906992 c 0,0.3248846 -0.228836,0.5906991 -0.508525,0.5906991 l -0.508525,0 0,1.5787847 0,1.578784 -1.9069676,-0.08422 z M 17.53937,4.38791 13.471171,4.38443 15.645843,4.182302 c 1.19607,-0.1111701 3.026759,-0.109606 4.068199,0.00348 l 1.893526,0.2056035 -4.068198,-0.00348 z"
     id="path4601"
     style="fill:#949492" />
  <path
     d="M 9.774831,24.452009 4.0443928,24.600903 3.7368427,23.771486 C 3.5676899,23.315307 3.5470402,22.820215 3.6909535,22.67128 3.8348679,22.522347 6.6270612,22.280159 9.8958275,22.133085 l 5.9432115,-0.267404 -0.166884,1.218717 -0.166885,1.218719 -5.730439,0.148892 z m -0.4324233,-0.666696 4.3113713,-0.02201 0.374844,-0.387917 0.374843,-0.387919 -0.974672,-0.05799 c -0.53607,-0.0319 -2.34769,-0.04984 -4.0258215,-0.03986 -1.678132,0.01 -3.6232392,0.0397 -4.3224608,0.06606 l -1.271312,0.04792 0.610918,0.401873 0.6109181,0.401874 4.3113719,-0.02201 z"
     id="path4599"
     style="fill:#b1ac2f" />
  <path
     d="m 9.657235,21.40868 -1.0170496,0 0.040148,-1.184089 0.040148,-1.184087 0.2564928,0.657826 c 0.1410685,0.361805 0.4797617,0.657827 0.7526492,0.657827 l 0.4961596,0 -0.3628449,-0.607573 -0.3628457,-0.607573 0.5870956,0.3755 c 0.322903,0.206526 0.587097,0.716751 0.587097,1.133835 l 0,0.758334 -1.0170499,0 z"
     id="path4597"
     style="fill:#6cb650" />
  <path
     d="m 4.4453167,22.502826 -1.9065074,0.273178 0.4461142,-0.461673 0.4461141,-0.461674 1.4603932,0.188495 1.4603928,0.188495 -1.9065069,0.273179 z m 16.1124273,0.415359 -1.4928,-0.06928 1.755175,-0.325418 1.755177,-0.325419 0.02466,-1.841914 0.02466,-1.841914 0.508524,0.08684 0.508525,0.08684 0.106656,-1.534062 0.106656,-1.534065 -0.375038,0 c -0.206271,0 -0.766909,0.473636 -1.245863,1.052523 l -0.870825,1.052522 -5.47162,-0.103009 -5.471618,-0.103019 5.33951,-0.309903 5.339511,-0.309903 -5.085249,-0.266335 -5.085247,-0.266333 4.958117,-0.110141 4.958117,-0.110141 0.0087,-0.657826 c 0.0047,-0.361805 0.06197,-3.101504 0.127131,-6.0882191 l 0.118471,-5.4303913 -3.894224,0.1677786 -3.894223,0.1677782 0.23743,-0.3946957 0.23743,-0.394696 4.081838,0 4.081837,0 -0.170782,6.2787567 -0.170781,6.2787566 0.857875,-0.804567 0.857873,-0.804566 0.54057,0.345743 0.540568,0.345742 0,2.771644 0,2.771644 -1.176955,1.144257 -1.176956,1.144258 -1.4928,-0.06928 z m -5.149593,-1.578784 -1.622695,0.06928 -0.316505,-0.529979 -0.316505,-0.529979 0.736841,-0.292614 c 0.405263,-0.160939 1.735575,-0.200639 2.956249,-0.08823 l 2.219408,0.20439 -2.796887,0.161219 -2.796886,0.16122 1.779836,0.387705 1.779837,0.387707 -1.622693,0.06928 z m -7.5255353,-4.667073 -0.3840122,0 0.5497826,-0.685553 0.5497823,-0.685552 -0.7128801,-1.422004 -0.71288,-1.422002 0.9881506,0.547287 c 0.5434835,0.301008 0.9876258,0.716569 0.9869836,0.923468 l -0.00117,0.37618 4.4507585,-0.03926 4.45076,-0.03926 -4.027601,0.193559 -4.0275994,0.193558 -0.8630323,1.029793 c -0.4746655,0.56638 -1.0358358,1.029787 -1.2470424,1.029787 z M 3.6602475,13.764222 2.9032156,14.064854 4.4822215,12.39348 6.0612266,10.722105 5.74656,10.195207 5.4318935,9.668307 6.0142095,10.04075 6.5965253,10.413193 5.506902,11.938391 C 4.9076097,12.77725 4.076615,13.598873 3.6602475,13.764222 z M 12.522657,9.3046694 c -0.139843,0 -0.423563,-0.5328394 -0.630486,-1.1840878 C 11.685246,7.4693332 11.491561,6.1668365 11.46176,5.2261445 l -0.05418,-1.7103492 0.363922,0 0.363923,0 0.15935,1.7103492 0.15935,1.7103493 2.924018,0.1578277 2.924018,0.1578278 0,0.387814 0,0.3878147 -3.051008,-0.3018784 -3.051006,-0.3018787 0.288389,0.9403245 c 0.158614,0.5171785 0.17397,0.940324 0.03413,0.940324 z M 7.1915873,6.6733631 c -0.1398445,0 0.2831887,-0.5920442 0.9400732,-1.3156532 0.6568843,-0.7236095 1.3087536,-1.3156537 1.4485981,-1.3156537 0.1398441,0 -0.283189,0.5920442 -0.9400732,1.3156537 -0.6568846,0.723609 -1.3087539,1.3156532 -1.4485981,1.3156532 z"
     id="path4595"
     style="fill:#6a6a6b" />
  <path
     d="m 19.005336,24.009577 -0.448918,0.425105 -0.635655,-0.241203 -0.635656,-0.241204 0,-1.008667 0,-1.008667 0.778747,0 0.778747,0 0.305826,0.824765 0.305826,0.824767 -0.448917,0.425104 z"
     id="path4593"
     style="fill:#b53b3c" />
  <path
     d="M 6.8603486,17.600725 C 5.1822166,17.590158 3.2725373,17.475933 2.6166163,17.346886 L 1.4240335,17.112257 1.7197544,15.971335 C 1.8824009,15.343827 2.0185999,14.6528 2.022419,14.435717 c 0.00381,-0.217082 0.3366926,-0.394695 0.7397193,-0.394695 0.4030269,0 0.8960558,0.273407 1.0956211,0.607572 l 0.3628455,0.607573 -0.529477,-0.338647 -0.5294767,-0.338649 -0.6284104,0.783598 -0.6284104,0.783598 0.4436597,0.06232 c 0.2440132,0.03428 0.6152871,0.03428 0.8250534,0 0.2097664,-0.03428 0.3813937,0.16858 0.3813937,0.450794 l 0,0.513114 3.344507,-0.102569 3.3445068,-0.102568 0.223462,-0.37418 c 0.122904,-0.205798 -0.0091,-0.522927 -0.293358,-0.704731 l -0.51682,-0.330554 0,0.557321 0,0.557319 -0.5707912,0 -0.5707905,0 0.6212015,-0.774609 0.6212023,-0.774609 1.1722959,0.906174 1.172298,0.906175 -1.095576,0.342238 c -0.602568,0.18823 -2.4685948,0.333594 -4.1467264,0.323028 z"
     id="path4591"
     style="fill:#830083" />
  <path
     d="m 13.866546,14.041022 -4.4356107,0 1.1301997,-0.819234 1.130199,-0.819233 0,-0.68858 c 0,-0.378719 0.474281,-1.312561 1.053959,-2.075204 l 1.053958,-1.386624 2.251452,0 2.251454,0 0,2.894437 0,2.894438 -4.435611,0 z"
     id="path4589"
     style="fill:#1514dd" />
  <path
     d="m 11.267564,25.092509 -7.7126268,0 9.17e-4,-0.394697 9.169e-4,-0.394695 7.3779589,0.04929 7.377959,0.04929 0.333768,0.34541 0.333735,0.345414 -7.712625,0 z m 9.667232,-1.480201 -1.615589,0.245388 0,-0.435116 0,-0.435116 1.436931,0 1.436931,0 1.073424,-1.184089 1.073425,-1.184087 0.19487,-2.631307 0.19487,-2.631306 0.09166,2.686025 0.09166,2.686026 -1.181296,1.319097 -1.181296,1.319096 z m -3.014033,-2.640553 c -0.489456,0.116653 -1.690845,0.05704 -2.669756,-0.132473 l -1.779836,-0.34457 2.669755,-0.06928 c 1.468365,-0.0381 2.669756,0.02151 2.669756,0.132475 0,0.110963 -0.400464,0.297194 -0.889919,0.413848 z m -1.398443,-3.959965 -4.576723,0.0029 2.145886,-0.200672 c 1.180238,-0.11037 3.239763,-0.111682 4.576724,-0.0029 l 2.430836,0.197758 -4.576723,0.0029 z m 5.720904,-1.499339 -0.635656,0.547784 0.158856,-5.745958 0.158854,-5.7459593 0.476801,0 0.476801,0 0,5.198175 0,5.1981753 z M 10.547153,13.295581 9.4029725,14.318732 8.513054,13.390484 7.6231356,12.462238 l 1.7798369,0 1.7798365,0 0,-1.578784 0,-1.5787846 0.797056,0 0.797055,0 -0.283233,-0.9209571 -0.283236,-0.9209575 2.918722,0.2518143 2.918722,0.2518148 -2.146766,0.1724087 -2.146765,0.1724092 -1.031515,1.3570967 c -0.567333,0.7464025 -1.031515,1.6376795 -1.031515,1.9806145 0,0.342934 -0.514881,1.083935 -1.144181,1.646668 z M 3.4072267,13.50779 C 3.3486229,13.503956 2.9002115,12.982154 2.4107564,12.34823 1.9213012,11.714307 1.5208379,10.888581 1.5208379,10.513286 l 0,-0.6823551 -0.5085248,0 -0.50852482,0 0,-2.6313068 0,-2.6313064 0.45339669,0 0.45339663,0 L 1.7277168,3.2606795 2.0448519,1.953041 3.3084194,1.6248445 3.7245292,0.66105468 l 0.8474576,0.16638295 0,-0.46921029 3.3054113,0 3.3054109,0 0,0.46921029 0,0.46921027 1.271312,0.3302079 1.271312,0.3302083 0,0.9780579 0,0.9780588 -0.762787,0.6551369 -0.762787,0.6551369 0,-0.8538294 0,-0.8538299 -1.176172,0 -1.1761712,0 L 8.385923,5.0945792 C 7.5820469,5.9629101 6.7219614,6.6733631 6.4746223,6.6733631 c -0.2473391,0 -0.7862736,0.3483049 -1.1976324,0.7740111 L 4.5290646,8.2213857 5.3007678,9.4402328 6.0724716,10.659079 4.7931249,12.08692 C 4.0894841,12.872231 3.4658301,13.511624 3.4072267,13.50779 z M 10.674285,6.6733631 c -0.559378,0 -1.01705,-0.090788 -1.01705,-0.2017524 0,-0.1109633 0.457672,-0.3256105 1.01705,-0.4769928 l 1.017049,-0.275241 0,0.4769935 0,0.4769927 z"
     id="path4587"
     style="fill:#080808" />
</svg>
