<?xml version="1.0" encoding="UTF-8" standalone="no"?>
<!-- Generator: Adobe Illustrator 25.2.1, SVG Export Plug-In . SVG Version: 6.00 Build 0)  -->

<svg width="24px" height="24px" version="1.1" id="Layer_1" xmlns="http://www.w3.org/2000/svg" xmlns:xlink="http://www.w3.org/1999/xlink" x="0px" y="0px"
	 viewBox="0 0 74.4 74.4" style="enable-background:new 0 0 74.4 74.4;" xml:space="preserve" preserveAspectRatio="xMinYMid meet">
<g>
	
	<path
   d="m 4.7210832,52.129278 c 0.053116,-0.0681 17.2122778,-22.064921 17.2122778,-22.064921 0.743742,-0.953423 0.435065,-2.508723 -0.668799,-3.36982 -1.103863,-0.861096 -2.687524,-0.781957 -3.431265,0.171465 L 0.78039198,48.726618 c -0.82258728,0.891915 -0.6458825,2.453811 0.40485602,3.383008 1.1827114,0.922602 2.713248,0.911566 3.5358352,0.01965 z"
   id="path3570-8"
   style="stroke-width:0.93057;stroke-miterlimit:4;stroke-dasharray:none" /><path
   d="m 4.7462755,48.324568 c 0.05312,0.0681 17.2122775,22.064921 17.2122775,22.064921 0.743742,0.953424 0.435065,2.508724 -0.668799,3.36982 -1.103863,0.861096 -2.687524,0.781958 -3.431265,-0.171464 L 0.80558388,51.727228 C -0.01700341,50.835313 0.15970139,49.273417 1.2104395,48.34422 c 1.182712,-0.922602 2.713248,-0.911566 3.535836,-0.01965 z"
   id="path3570-8-1"
   style="stroke-width:0.93057;stroke-miterlimit:4;stroke-dasharray:none" />
	
	
<path
   d="m 28.75082,66.584671 c 0.06967,-0.08835 22.574149,-28.626054 22.574149,-28.626054 0.975427,-1.236929 0.869241,-3.040211 -0.230068,-3.907113 -1.09931,-0.866902 -2.877654,-0.549738 -3.853081,0.687193 L 24.876691,63.099692 c -1.053949,1.175008 -1.095958,3.004722 -0.06632,3.959974 1.177833,0.928823 2.886504,0.700011 3.940452,-0.474995 z"
   id="path3570-5"
   style="stroke-width:1.06213;stroke-miterlimit:4;stroke-dasharray:none" /><path
   d="m 69.80261,52.130616 c -0.05312,-0.0681 -17.212278,-22.064921 -17.212278,-22.064921 -0.743742,-0.953423 -0.435065,-2.508723 0.668799,-3.36982 1.103863,-0.861096 2.687524,-0.781957 3.431265,0.171465 l 17.052905,21.860616 c 0.822587,0.891915 0.645883,2.453811 -0.404856,3.383008 -1.182711,0.922602 -2.713248,0.911566 -3.535835,0.01965 z"
   id="path3570-8-0"
   style="stroke-width:0.93057;stroke-miterlimit:4;stroke-dasharray:none" /><path
   d="m 69.777418,48.325906 c -0.05312,0.0681 -17.212278,22.064921 -17.212278,22.064921 -0.743742,0.953424 -0.435065,2.508724 0.668799,3.36982 1.103863,0.861096 2.687524,0.781958 3.431265,-0.171464 L 73.718109,51.728566 c 0.822588,-0.891915 0.645883,-2.453811 -0.404855,-3.383008 -1.182712,-0.922602 -2.713248,-0.911566 -3.535836,-0.01965 z"
   id="path3570-8-1-8"
   style="stroke-width:0.93057;stroke-miterlimit:4;stroke-dasharray:none" /><text
   xml:space="preserve"
   style="font-size:28.9333px;line-height:1.25;font-family:Arial;-inkscape-font-specification:Arial;stroke-width:3.1031;stroke-miterlimit:4;stroke-dasharray:none"
   x="11.371161"
   y="20.859207"
   id="text18777"><tspan
     id="tspan18775"
     style="font-style:normal;font-variant:normal;font-weight:normal;font-stretch:normal;font-size:28.9333px;font-family:Arial;-inkscape-font-specification:Arial;stroke-width:3.1031;stroke-miterlimit:4;stroke-dasharray:none"
     x="11.371161"
     y="20.859207">VPL</tspan></text></g>
</svg>
