<?xml version="1.0" encoding="UTF-8" standalone="no"?>
<svg width="24px" height="24px" version="1.1" id="Layer_1" xmlns="http://www.w3.org/2000/svg" xmlns:xlink="http://www.w3.org/1999/xlink" x="0px" y="0px"
	 viewBox="0 0 74.4 74.4" style="enable-background:new 0 0 74.4 74.4;" xml:space="preserve" preserveAspectRatio="xMinYMid meet">
   <g style="" transform="matrix(0.8, 0, 0, 0.8, 8, 8)">
      <g>
      <path d="m 35.726568,70.013771 c 3.237723,-13.945114 6.511902,-27.882652 9.726822,-41.832505 0.354838,-1.757837 -1.364172,-3.780287 -3.196564,-3.074823 -1.676478,0.516264 -1.989271,2.342719 -2.303015,3.825471 -3.104812,13.38375 -6.254973,26.759336 -9.331371,40.148202 -0.293017,1.690791 1.27915,3.652619 3.076471,3.006457 0.979764,-0.275869 1.745468,-1.105988 2.027657,-2.072802 z" fill="#212529"/>
      <path d="M 67.431177,51.32825 C 60.77994,46.596203 54.113743,41.883177 47.481089,37.126244 c -1.637644,-1.576227 -0.05066,-4.624379 2.141601,-4.447539 1.161239,0.14299 1.965824,1.111564 2.930198,1.69312 6.034064,4.311884 12.092322,8.591992 18.111247,12.92376 1.548854,1.558545 0.05902,4.682753 -2.151827,4.412288 -0.384958,-0.03165 -0.761205,-0.162917 -1.081131,-0.379623 z" fill="#212529"/>
      <path d="m 67.110559,47.037433 c -6.651236,4.732049 -13.317434,9.445073 -19.950088,14.202006 -1.637644,1.576227 -0.05066,4.624379 2.141601,4.447539 1.161239,-0.14299 1.965824,-1.111564 2.930198,-1.69312 6.034064,-4.311884 12.092322,-8.591992 18.111247,-12.92376 1.548854,-1.558545 0.05902,-4.682753 -2.151827,-4.412288 -0.384958,0.03165 -0.761205,0.162917 -1.081131,0.379623 z" fill="#212529"/>
      <path d="m 7.741097,51.525336 c 6.651237,-4.732047 13.317434,-9.445073 19.950088,-14.202006 1.637644,-1.576227 0.05066,-4.624379 -2.141601,-4.447539 -1.161239,0.14299 -1.965824,1.111564 -2.930198,1.69312 -6.034064,4.311884 -12.092322,8.591992 -18.111247,12.92376 -1.548854,1.558545 -0.05902,4.682753 2.151827,4.412288 0.384958,-0.03165 0.761205,-0.162917 1.081131,-0.379623 z" fill="#212529"/>
      <path d="m 8.061715,47.234519 c 6.651236,4.732049 13.317434,9.445073 19.950088,14.202006 1.637644,1.576227 0.05066,4.624379 -2.141601,4.447539 C 24.708963,65.741074 23.904378,64.7725 22.940004,64.190944 16.90594,59.87906 10.847682,55.598952 4.828757,51.267184 3.279903,49.708639 4.769737,46.584431 6.980584,46.854896 c 0.384958,0.03165 0.761205,0.162917 1.081131,0.379623 z" fill="#212529"/>
      <animateTransform type="rotate" attributeName="transform" values="0 37.2 50; 0 37.2 50;360 37.2 50" keyTimes="0; 0.975; 1" dur="20s" repeatCount="3"></animateTransform>
      <animate attributeName="opacity" values="1; 1; 0; 1; 1; 0; 1" keyTimes="0; 0.5; 0.52; 0.54; 0.955; 0.965; 1" dur="20s" repeatCount="3"></animate>

      </g>
      <text xml:space="preserve" style="font-family:Arial;font-size:29px;font-weight:700;line-height:1.25ex" fill="#212529"><tspan x="8" y="22">VPL</tspan></text>
   </g>
</svg>
